<svg height="96" version="1.1" width="96" viewBox="0 0 768 768" xmlns="http://www.w3.org/2000/svg" xmlns:xlink="http://www.w3.org/1999/xlink" style="overflow: hidden; position: relative;"><desc style="-webkit-tap-highlight-color: rgba(0, 0, 0, 0);">Created with Raphaël 2.2.0</desc><defs style="-webkit-tap-highlight-color: rgba(0, 0, 0, 0);"><path stroke-linecap="round" d="M5,0 0,2.5 5,5z" id="raphael-marker-block" style="-webkit-tap-highlight-color: rgba(0, 0, 0, 0);"></path><marker id="raphael-marker-endblock23-objugym5" markerHeight="3" markerWidth="2" orient="auto" refX="1" refY="1.5" style="-webkit-tap-highlight-color: rgba(0, 0, 0, 0);"><use xmlns:xlink="http://www.w3.org/1999/xlink" xlink:href="#raphael-marker-block" transform="rotate(180 1 1.5) scale(0.4,0.6)" stroke-width="2.0000" fill="#fff" stroke="none" style="-webkit-tap-highlight-color: rgba(0, 0, 0, 0);"></use></marker><marker id="raphael-marker-endblock23-objwjy50" markerHeight="3" markerWidth="2" orient="auto" refX="1" refY="1.5" style="-webkit-tap-highlight-color: rgba(0, 0, 0, 0);"><use xmlns:xlink="http://www.w3.org/1999/xlink" xlink:href="#raphael-marker-block" transform="rotate(180 1 1.5) scale(0.4,0.6)" stroke-width="2.0000" fill="#fff" stroke="none" style="-webkit-tap-highlight-color: rgba(0, 0, 0, 0);"></use></marker><marker id="raphael-marker-endblock23-objwjahb" markerHeight="3" markerWidth="2" orient="auto" refX="1" refY="1.5" style="-webkit-tap-highlight-color: rgba(0, 0, 0, 0);"><use xmlns:xlink="http://www.w3.org/1999/xlink" xlink:href="#raphael-marker-block" transform="rotate(180 1 1.5) scale(0.4,0.6)" stroke-width="2.0000" fill="#fff" stroke="none" style="-webkit-tap-highlight-color: rgba(0, 0, 0, 0);"></use></marker><marker id="raphael-marker-endblock23-objg3bch" markerHeight="3" markerWidth="2" orient="auto" refX="1" refY="1.5" style="-webkit-tap-highlight-color: rgba(0, 0, 0, 0);"><use xmlns:xlink="http://www.w3.org/1999/xlink" xlink:href="#raphael-marker-block" transform="rotate(180 1 1.5) scale(0.4,0.6)" stroke-width="2.0000" fill="#fff" stroke="none" style="-webkit-tap-highlight-color: rgba(0, 0, 0, 0);"></use></marker><marker id="raphael-marker-endblock23-objspw3m" markerHeight="3" markerWidth="2" orient="auto" refX="1" refY="1.5" style="-webkit-tap-highlight-color: rgba(0, 0, 0, 0);"><use xmlns:xlink="http://www.w3.org/1999/xlink" xlink:href="#raphael-marker-block" transform="rotate(180 1 1.5) scale(0.4,0.6)" stroke-width="2.0000" fill="#fff" stroke="none" style="-webkit-tap-highlight-color: rgba(0, 0, 0, 0);"></use></marker><marker id="raphael-marker-endblock23-objp8eur" markerHeight="3" markerWidth="2" orient="auto" refX="1" refY="1.5" style="-webkit-tap-highlight-color: rgba(0, 0, 0, 0);"><use xmlns:xlink="http://www.w3.org/1999/xlink" xlink:href="#raphael-marker-block" transform="rotate(180 1 1.5) scale(0.4,0.6)" stroke-width="2.0000" fill="#fff" stroke="none" style="-webkit-tap-highlight-color: rgba(0, 0, 0, 0);"></use></marker><marker id="raphael-marker-endblock23-obji96ab" markerHeight="3" markerWidth="2" orient="auto" refX="1" refY="1.5" style="-webkit-tap-highlight-color: rgba(0, 0, 0, 0);"><use xmlns:xlink="http://www.w3.org/1999/xlink" xlink:href="#raphael-marker-block" transform="rotate(180 1 1.5) scale(0.4,0.6)" stroke-width="2.0000" fill="#fff" stroke="none" style="-webkit-tap-highlight-color: rgba(0, 0, 0, 0);"></use></marker><marker id="raphael-marker-endblock23-objl95ma" markerHeight="3" markerWidth="2" orient="auto" refX="1" refY="1.5" style="-webkit-tap-highlight-color: rgba(0, 0, 0, 0);"><use xmlns:xlink="http://www.w3.org/1999/xlink" xlink:href="#raphael-marker-block" transform="rotate(180 1 1.5) scale(0.4,0.6)" stroke-width="2.0000" fill="#fff" stroke="none" style="-webkit-tap-highlight-color: rgba(0, 0, 0, 0);"></use></marker><marker id="raphael-marker-endblock23-objp6iy4" markerHeight="3" markerWidth="2" orient="auto" refX="1" refY="1.5" style="-webkit-tap-highlight-color: rgba(0, 0, 0, 0);"><use xmlns:xlink="http://www.w3.org/1999/xlink" xlink:href="#raphael-marker-block" transform="rotate(180 1 1.5) scale(0.4,0.6)" stroke-width="2.0000" fill="#fff" stroke="none" style="-webkit-tap-highlight-color: rgba(0, 0, 0, 0);"></use></marker></defs><circle cx="384" cy="384" r="268.79999999999995" fill="#ffffff" stroke="none" style="-webkit-tap-highlight-color: rgba(0, 0, 0, 0);"></circle><path fill="none" stroke="#ffffff" d="M384,384C384,384,384,138.3599853515625,384,40.008026361465454" stroke-width="40" marker-end="url(#raphael-marker-endblock23-objwjy50)" transform="matrix(1,0,0,1,0,0)" style="-webkit-tap-highlight-color: rgba(0, 0, 0, 0);"></path><path fill="none" stroke="#ffffff" d="M384,384C384,384,384,138.3599853515625,384,40.008026361465454" stroke-width="40" marker-end="url(#raphael-marker-endblock23-objwjahb)" transform="matrix(0.7071,0.7071,-0.7071,0.7071,384,-159.058)" style="-webkit-tap-highlight-color: rgba(0, 0, 0, 0);"></path><path fill="none" stroke="#ffffff" d="M384,384C384,384,384,138.3599853515625,384,40.008026361465454" stroke-width="40" marker-end="url(#raphael-marker-endblock23-objg3bch)" transform="matrix(0,1,-1,0,768,0)" style="-webkit-tap-highlight-color: rgba(0, 0, 0, 0);"></path><path fill="none" stroke="#ffffff" d="M384,384C384,384,384,138.3599853515625,384,40.008026361465454" stroke-width="40" marker-end="url(#raphael-marker-endblock23-objspw3m)" transform="matrix(-0.7071,0.7071,-0.7071,-0.7071,927.058,384)" style="-webkit-tap-highlight-color: rgba(0, 0, 0, 0);"></path><path fill="none" stroke="#ffffff" d="M384,384C384,384,384,138.3599853515625,384,40.008026361465454" stroke-width="40" marker-end="url(#raphael-marker-endblock23-objp8eur)" transform="matrix(-1,0,0,-1,768,768)" style="-webkit-tap-highlight-color: rgba(0, 0, 0, 0);"></path><path fill="none" stroke="#ffffff" d="M384,384C384,384,384,138.3599853515625,384,40.008026361465454" stroke-width="40" marker-end="url(#raphael-marker-endblock23-obji96ab)" transform="matrix(-0.7071,-0.7071,0.7071,-0.7071,384,927.058)" style="-webkit-tap-highlight-color: rgba(0, 0, 0, 0);"></path><path fill="none" stroke="#ffffff" d="M384,384C384,384,384,138.3599853515625,384,40.008026361465454" stroke-width="40" marker-end="url(#raphael-marker-endblock23-objl95ma)" transform="matrix(0,-1,1,0,0,768)" style="-webkit-tap-highlight-color: rgba(0, 0, 0, 0);"></path><path fill="none" stroke="#ffffff" d="M384,384C384,384,384,138.3599853515625,384,40.008026361465454" stroke-width="40" marker-end="url(#raphael-marker-endblock23-objp6iy4)" transform="matrix(0.7071,-0.7071,0.7071,0.7071,-159.058,384)" style="-webkit-tap-highlight-color: rgba(0, 0, 0, 0);"></path><path fill="#333399" stroke="none" d="M250.69444444444446,457.33333333333337C292.70833333333337,457.33333333333337,327.08333333333337,422.19444444444446,326.31944444444446,380.94444444444446C326.31944444444446,380.94444444444446,368.3333333333333,380.94444444444446,368.3333333333333,380.94444444444446C368.3333333333333,380.94444444444446,368.3333333333333,499.34722222222223,368.3333333333333,499.34722222222223C368.3333333333333,499.34722222222223,325.55555555555554,460.3888888888889,325.55555555555554,460.3888888888889C259.8611111111111,527.6111111111111,141.45833333333334,471.84722222222223,141.45833333333334,380.94444444444446C141.45833333333334,294.625,252.22222222222223,235.80555555555557,320.20833333333337,296.9166666666667C320.20833333333337,296.9166666666667,299.58333333333337,323.6527777777778,299.58333333333337,323.6527777777778C253.75,280.11111111111114,174.30555555555557,319.83333333333337,174.30555555555557,380.94444444444446C174.30555555555557,422.95833333333337,209.44444444444446,457.33333333333337,250.69444444444446,457.33333333333337C250.69444444444446,457.33333333333337,250.69444444444446,457.33333333333337,250.69444444444446,457.33333333333337M317.15277777777777,380.94444444444446C317.91666666666663,416.84722222222223,286.59722222222223,448.1666666666667,250.69444444444446,448.1666666666667C214.79166666666669,448.1666666666667,183.47222222222223,416.84722222222223,183.47222222222223,380.94444444444446C183.47222222222223,327.47222222222223,254.51388888888889,292.33333333333337,294.2361111111111,331.2916666666667C294.2361111111111,331.2916666666667,274.375,357.2638888888889,274.375,357.2638888888889C254.51388888888889,335.875,217.08333333333334,352.68055555555554,217.08333333333334,380.94444444444446C217.08333333333334,399.27777777777777,233.125,414.55555555555554,250.69444444444446,414.55555555555554C268.2638888888889,414.55555555555554,285.06944444444446,398.5138888888889,283.54166666666663,380.94444444444446C283.54166666666663,380.94444444444446,317.15277777777777,380.94444444444446,317.15277777777777,380.94444444444446C317.15277777777777,380.94444444444446,317.15277777777777,380.94444444444446,317.15277777777777,380.94444444444446M507.0861111111111,276.2916666666667C562.85,274.7638888888889,611.7388888888889,325.18055555555554,611.7388888888889,380.94444444444446C611.7388888888889,435.94444444444446,562.0861111111111,485.59722222222223,507.0861111111111,485.59722222222223C507.0861111111111,485.59722222222223,400.1416666666667,485.59722222222223,400.1416666666667,485.59722222222223C400.1416666666667,485.59722222222223,400.1416666666667,276.2916666666667,400.1416666666667,276.2916666666667C400.1416666666667,276.2916666666667,507.0861111111111,276.2916666666667,507.0861111111111,276.2916666666667C507.0861111111111,276.2916666666667,507.0861111111111,276.2916666666667,507.0861111111111,276.2916666666667M507.0861111111111,447.40277777777777C542.225,448.1666666666667,573.5444444444445,416.08333333333337,573.5444444444445,380.94444444444446C573.5444444444445,345.0416666666667,542.9888888888889,313.72222222222223,507.0861111111111,313.72222222222223C507.0861111111111,313.72222222222223,437.57222222222225,313.72222222222223,437.57222222222225,313.72222222222223C437.57222222222225,313.72222222222223,437.57222222222225,447.40277777777777,437.57222222222225,447.40277777777777C437.57222222222225,447.40277777777777,507.0861111111111,447.40277777777777,507.0861111111111,447.40277777777777C507.0861111111111,447.40277777777777,507.0861111111111,447.40277777777777,507.0861111111111,447.40277777777777M507.0861111111111,323.6527777777778C536.8777777777777,322.8888888888889,564.3777777777777,350.3888888888889,564.3777777777777,380.94444444444446C564.3777777777777,410.73611111111114,536.8777777777777,438.23611111111114,507.0861111111111,438.23611111111114C507.0861111111111,438.23611111111114,446.73888888888894,438.23611111111114,446.73888888888894,438.23611111111114C446.73888888888894,438.23611111111114,446.73888888888894,323.6527777777778,446.73888888888894,323.6527777777778C446.73888888888894,323.6527777777778,507.0861111111111,323.6527777777778,507.0861111111111,323.6527777777778C507.0861111111111,323.6527777777778,507.0861111111111,323.6527777777778,507.0861111111111,323.6527777777778M484.93333333333334,400.0416666666667C506.32222222222225,401.56944444444446,526.1833333333334,400.80555555555554,526.1833333333334,380.94444444444446C526.1833333333334,361.84722222222223,506.32222222222225,359.55555555555554,484.93333333333334,361.08333333333337C484.93333333333334,361.08333333333337,484.93333333333334,400.0416666666667,484.93333333333334,400.0416666666667C484.93333333333334,400.0416666666667,484.93333333333334,400.0416666666667,484.93333333333334,400.0416666666667" style="-webkit-tap-highlight-color: rgba(0, 0, 0, 0);"></path></svg>
