<?xml version="1.0" encoding="UTF-8" standalone="no"?>

<svg id="SvgjsSvg1001" viewBox="0 0 512 512" width="64" height="64" xmlns="http://www.w3.org/2000/svg" version="1.1" xmlns:xlink="http://www.w3.org/1999/xlink" xmlns:svgjs="http://svgjs.com/svgjs"><defs id="SvgjsDefs1002"><line id="SvgjsLine1008" x1="256" y1="256" x2="256" y2="32" stroke="#888888" stroke-width="32" marker-end="url(#SvgjsMarker1010)"></line><polygon id="SvgjsPolygon1009" points="0,0 0,1 1,0.5" fill="#888888"></polygon><marker id="SvgjsMarker1010" markerWidth="2" markerHeight="2" refX="0.5" refY="0.5" viewBox="0 0 1 1" orient="auto"><use id="SvgjsUse1011" xlink:href="#SvgjsPolygon1009" transform="matrix(1,0,0,1,0,0)"></use></marker><circle id="SvgjsCircle1020" r="0.5" cx="0.5" cy="0.5" fill="#000000"></circle><marker id="SvgjsMarker1021" markerWidth="1" markerHeight="1" refX="0.5" refY="0.5" viewBox="0 0 1 1" orient="auto"><use id="SvgjsUse1022" xlink:href="#SvgjsCircle1020"></use></marker></defs><use id="SvgjsUse1012" xlink:href="#SvgjsLine1008" transform="matrix(1,0,0,1,0,0)"></use><use id="SvgjsUse1013" xlink:href="#SvgjsLine1008" transform="matrix(0.7071067811865476,0.7071067811865475,-0.7071067811865475,0.7071067811865476,255.99999999999997,-106.0386719675123)"></use><use id="SvgjsUse1014" xlink:href="#SvgjsLine1008" transform="matrix(6.123233995736766e-17,1,-1,6.123233995736766e-17,512,0)"></use><use id="SvgjsUse1015" xlink:href="#SvgjsLine1008" transform="matrix(-0.7071067811865475,0.7071067811865476,-0.7071067811865476,-0.7071067811865475,618.0386719675123,255.99999999999997)"></use><use id="SvgjsUse1016" xlink:href="#SvgjsLine1008" transform="matrix(-1,1.2246467991473532e-16,-1.2246467991473532e-16,-1,512,512)"></use><use id="SvgjsUse1017" xlink:href="#SvgjsLine1008" transform="matrix(-0.7071067811865477,-0.7071067811865475,0.7071067811865475,-0.7071067811865477,256.00000000000006,618.0386719675123)"></use><use id="SvgjsUse1018" xlink:href="#SvgjsLine1008" transform="matrix(-1.8369701987210297e-16,-1,1,-1.8369701987210297e-16,5.684341886080802e-14,512)"></use><use id="SvgjsUse1019" xlink:href="#SvgjsLine1008" transform="matrix(0.7071067811865474,-0.7071067811865477,0.7071067811865477,0.7071067811865474,-106.0386719675123,256.0000000000001)"></use><path id="SvgjsPath1023" d="M304 128C304 128 560 256 304 384L304 128 " stroke="#000000" stroke-width="32" fill="none" transform="matrix(1,0,0,1,0,0)" marker-end="url(#SvgjsMarker1021)"></path><path id="SvgjsPath1024" d="M206 128C206 128 -50 256 206 384L206 256L150 256 " stroke="#000000" stroke-width="32" fill="none" transform="matrix(1,0,0,1,0,0)" marker-start="url(#SvgjsMarker1021)" marker-end="url(#SvgjsMarker1021)"></path></svg>