<?xml version="1.0" encoding="UTF-8" standalone="no"?>
<!-- Created with Inkscape (http://www.inkscape.org/) -->

<svg
   xmlns:osb="http://www.openswatchbook.org/uri/2009/osb"
   xmlns:dc="http://purl.org/dc/elements/1.1/"
   xmlns:cc="http://creativecommons.org/ns#"
   xmlns:rdf="http://www.w3.org/1999/02/22-rdf-syntax-ns#"
   xmlns:svg="http://www.w3.org/2000/svg"
   xmlns="http://www.w3.org/2000/svg"
   xmlns:xlink="http://www.w3.org/1999/xlink"
   xmlns:sodipodi="http://sodipodi.sourceforge.net/DTD/sodipodi-0.dtd"
   xmlns:inkscape="http://www.inkscape.org/namespaces/inkscape"
   width="256"
   height="256"
   viewBox="0 0 256 256"
   id="svg2"
   version="1.1"
   inkscape:version="0.91 r13725"
   sodipodi:docname="brand-logo.svg">
  <defs
     id="defs4">
    <linearGradient
       inkscape:collect="always"
       id="linearGradient5718">
      <stop
         style="stop-color:#000000;stop-opacity:1;"
         offset="0"
         id="stop5720" />
      <stop
         style="stop-color:#000000;stop-opacity:0;"
         offset="1"
         id="stop5722" />
    </linearGradient>
    <linearGradient
       id="linearGradient5710"
       osb:paint="solid">
      <stop
         style="stop-color:#000000;stop-opacity:1;"
         offset="0"
         id="stop5712" />
    </linearGradient>
    <radialGradient
       inkscape:collect="always"
       xlink:href="#linearGradient5718"
       id="radialGradient5724"
       cx="128.67385"
       cy="127.91016"
       fx="128.67385"
       fy="127.91016"
       r="127.56519"
       gradientTransform="translate(0,2.5043677e-5)"
       gradientUnits="userSpaceOnUse" />
  </defs>
  <sodipodi:namedview
     id="base"
     pagecolor="#ffffff"
     bordercolor="#666666"
     borderopacity="1.0"
     inkscape:pageopacity="0.0"
     inkscape:pageshadow="2"
     inkscape:zoom="0.7"
     inkscape:cx="29.033239"
     inkscape:cy="130.53899"
     inkscape:document-units="px"
     inkscape:current-layer="svg2"
     showgrid="false"
     units="px"
     inkscape:window-width="1920"
     inkscape:window-height="1027"
     inkscape:window-x="-8"
     inkscape:window-y="-8"
     inkscape:window-maximized="1" />
  <metadata
     id="metadata7">
    <rdf:RDF>
      <cc:Work
         rdf:about="">
        <dc:format>image/svg+xml</dc:format>
        <dc:type
           rdf:resource="http://purl.org/dc/dcmitype/StillImage" />
        <dc:title />
      </cc:Work>
    </rdf:RDF>
  </metadata>
  <g
     inkscape:label="Grid"
     inkscape:groupmode="layer"
     id="layer1"
     style="display:inline"
     sodipodi:insensitive="true">
    <circle
       style="fill:none;fill-rule:evenodd;stroke:#000000;stroke-width:1;stroke-linecap:butt;stroke-linejoin:miter;stroke-miterlimit:4;stroke-dasharray:none;stroke-opacity:1"
       id="path3336"
       cx="128"
       cy="128"
       r="128" />
    <circle
       style="fill:none;stroke:#000000;stroke-width:1;stroke-miterlimit:4;stroke-dasharray:none;stroke-opacity:1"
       id="path4145"
       cx="128"
       cy="128"
       r="96" />
    <circle
       cy="128"
       cx="128"
       id="circle4147"
       style="fill:none;stroke:#000000;stroke-width:1;stroke-miterlimit:4;stroke-dasharray:none;stroke-opacity:1"
       r="64" />
    <circle
       r="8"
       style="fill:none;stroke:#000000;stroke-width:1;stroke-miterlimit:4;stroke-dasharray:none;stroke-opacity:1"
       id="circle4151"
       cx="128"
       cy="128" />
  </g>
  <g
     inkscape:groupmode="layer"
     id="layer4"
     inkscape:label="Chaosphere2">
    <path
       style="fill:none;fill-opacity:1;fill-rule:nonzero;stroke:#000000;stroke-width:0.81273186;stroke-miterlimit:4;stroke-dasharray:none;stroke-opacity:1"
       d="m 112,24 8,0 -1.50808,106.93953 15.32024,0.0526 -1.18525,-106.99209 9.80121,0 L 128,-0.25831879 Z"
       id="path4154"
       inkscape:connector-curvature="0"
       sodipodi:nodetypes="cccccccc" />
  </g>
  <g
     inkscape:groupmode="layer"
     id="layer2"
     inkscape:label="Chaosphere"
     style="display:inline"
     sodipodi:insensitive="true">
    <path
       transform="matrix(0.78592291,0,0,0.90054096,-188.15293,-2.8130232)"
       style="fill:none;stroke:#000000;stroke-width:1;stroke-miterlimit:4;stroke-dasharray:none;stroke-opacity:1"
       inkscape:transform-center-x="-0.16615728"
       inkscape:transform-center-y="-10.131597"
       d="m 13.698866,-15.479146 c 14.967127,-30.417506 -10.6920004,-16.474052 22.386613,-35.456552 16.973435,20.271156 -0.139486,8.842965 17.974801,35.120772 10.968727,35.761469 -61.3512929,19.7606434 -40.361414,0.33578 z"
       id="path4153"
       inkscape:connector-curvature="0"
       sodipodi:nodetypes="cccc" />
    <path
       style="fill:none;stroke:#000000;stroke-width:1;stroke-miterlimit:4;stroke-dasharray:none;stroke-opacity:1"
       d="m -177.28177,-48.560993 32,0 0,32 -32,0 z"
       id="rect4155"
       inkscape:connector-curvature="0" />
    <path
       style="fill:url(#radialGradient5724);fill-opacity:1;fill-rule:nonzero;stroke:#000000;stroke-width:1;stroke-miterlimit:4;stroke-dasharray:none;stroke-opacity:1"
       d="M 129.60156,1.3886719 113,31.804688 l 8.59766,0 0.54687,80.000002 -56.251952,-57.025393 7.21875,-7.220703 -33.246094,-9.769532 9.769532,33.248047 6.080078,-6.080078 56.953126,56.181639 -80.097658,-0.54687 0,-10.21094 -30.4179682,16.60156 30.4179682,16.60156 0,-8.59765 79.998048,-0.54688 -57.025391,56.25196 -7.21875,-7.22071 -9.769531,33.24805 33.246093,-9.77148 -6.078125,-6.07813 56.179684,-56.95508 -0.54687,80.09961 -10.21094,0 16.60156,30.41797 16.60157,-30.41797 -8.59766,0 -0.54688,-80 56.25196,57.02539 -7.2207,7.22071 33.24804,9.76953 -9.76953,-33.24805 -6.08008,6.08008 -56.95508,-56.18164 80.09961,0.54687 0,10.21094 30.41797,-16.60156 -30.41797,-16.59961 0,8.5957 -80,0.54883 57.02735,-56.251954 7.21875,7.21875 9.76953,-33.246094 -33.24609,9.769532 6.07812,6.078125 -56.17969,56.955081 0.54688,-80.099612 10.20898,0 -16.59961,-30.4160161 z m 0.64063,122.7226581 2.22656,2.22265 0.002,3.14649 -2.2207,2.22461 -3.14453,0.002 -2.22656,-2.22265 -0.002,-3.14649 2.22266,-2.22461 3.14258,-0.002 z"
       id="use4196"
       inkscape:connector-curvature="0" />
  </g>
  <g
     inkscape:groupmode="layer"
     id="layer3"
     inkscape:label="Text"
     style="display:inline"
     sodipodi:insensitive="true">
    <circle
       style="display:inline;fill:none;stroke:#000000;stroke-width:1;stroke-miterlimit:4;stroke-dasharray:none;stroke-opacity:1"
       id="path4145-4"
       cx="-95.74102"
       cy="147.57985"
       r="95.17794" />
    <circle
       r="95.17794"
       cy="0"
       cx="0"
       id="circle5735"
       style="display:inline;fill:none;stroke:#000000;stroke-width:1;stroke-miterlimit:4;stroke-dasharray:none;stroke-opacity:1" />
  </g>
</svg>
