<?xml version="1.0" encoding="UTF-8" standalone="no"?>
<!-- Created with Inkscape (http://www.inkscape.org/) -->

<svg
   xmlns:osb="http://www.openswatchbook.org/uri/2009/osb"
   xmlns:dc="http://purl.org/dc/elements/1.1/"
   xmlns:cc="http://creativecommons.org/ns#"
   xmlns:rdf="http://www.w3.org/1999/02/22-rdf-syntax-ns#"
   xmlns:svg="http://www.w3.org/2000/svg"
   xmlns="http://www.w3.org/2000/svg"
   xmlns:xlink="http://www.w3.org/1999/xlink"
   xmlns:sodipodi="http://sodipodi.sourceforge.net/DTD/sodipodi-0.dtd"
   xmlns:inkscape="http://www.inkscape.org/namespaces/inkscape"
   width="256"
   height="256"
   viewBox="0 0 256 256"
   id="svg2"
   version="1.1"
   inkscape:version="0.91 r13725"
   sodipodi:docname="brand-logo.svg">
  <defs
     id="defs4">
    <linearGradient
       inkscape:collect="always"
       id="linearGradient5718">
      <stop
         style="stop-color:#000000;stop-opacity:1;"
         offset="0"
         id="stop5720" />
      <stop
         style="stop-color:#000000;stop-opacity:0;"
         offset="1"
         id="stop5722" />
    </linearGradient>
    <linearGradient
       id="linearGradient5710"
       osb:paint="solid">
      <stop
         style="stop-color:#000000;stop-opacity:1;"
         offset="0"
         id="stop5712" />
    </linearGradient>
    <radialGradient
       inkscape:collect="always"
       xlink:href="#linearGradient5718"
       id="radialGradient5724"
       cx="128.67385"
       cy="127.91016"
       fx="128.67385"
       fy="127.91016"
       r="127.56519"
       gradientTransform="translate(0,2.5043677e-5)"
       gradientUnits="userSpaceOnUse" />
  </defs>
  <sodipodi:namedview
     id="base"
     pagecolor="#ffffff"
     bordercolor="#666666"
     borderopacity="1.0"
     inkscape:pageopacity="0.0"
     inkscape:pageshadow="2"
     inkscape:zoom="1.979899"
     inkscape:cx="150.90917"
     inkscape:cy="162.44912"
     inkscape:document-units="px"
     inkscape:current-layer="layer3"
     showgrid="false"
     units="px"
     inkscape:window-width="1920"
     inkscape:window-height="1027"
     inkscape:window-x="-8"
     inkscape:window-y="-8"
     inkscape:window-maximized="1" />
  <metadata
     id="metadata7">
    <rdf:RDF>
      <cc:Work
         rdf:about="">
        <dc:format>image/svg+xml</dc:format>
        <dc:type
           rdf:resource="http://purl.org/dc/dcmitype/StillImage" />
        <dc:title />
      </cc:Work>
    </rdf:RDF>
  </metadata>
  <g
     inkscape:label="Grid"
     inkscape:groupmode="layer"
     id="layer1"
     style="display:none"
     sodipodi:insensitive="true">
    <circle
       style="fill:none;fill-rule:evenodd;stroke:#000000;stroke-width:1;stroke-linecap:butt;stroke-linejoin:miter;stroke-miterlimit:4;stroke-dasharray:none;stroke-opacity:1"
       id="path3336"
       cx="128"
       cy="128"
       r="128" />
    <circle
       style="fill:none;stroke:#000000;stroke-width:1;stroke-miterlimit:4;stroke-dasharray:none;stroke-opacity:1"
       id="path4145"
       cx="128"
       cy="128"
       r="96" />
    <circle
       cy="128"
       cx="128"
       id="circle4147"
       style="fill:none;stroke:#000000;stroke-width:1;stroke-miterlimit:4;stroke-dasharray:none;stroke-opacity:1"
       r="64" />
    <circle
       r="8"
       style="fill:none;stroke:#000000;stroke-width:1;stroke-miterlimit:4;stroke-dasharray:none;stroke-opacity:1"
       id="circle4151"
       cx="128"
       cy="128" />
  </g>
  <g
     inkscape:groupmode="layer"
     id="layer4"
     inkscape:label="Chaosphere2"
     style="display:inline"
     sodipodi:insensitive="true">
    <path
       style="fill:none;fill-opacity:1;fill-rule:nonzero;stroke:#000000;stroke-width:0.81273186;stroke-miterlimit:4;stroke-dasharray:none;stroke-opacity:0.25123153"
       d="m 128,0 -16,16 8,0 0,92.6875 -65.539062,-65.541016 5.65625,-5.65625 -22.626954,0 0,22.626954 5.65625,-5.65625 L 108.6875,120 16,120 l 0,-8 -16,16 16,16 0,-8 92.6875,0 -65.541016,65.53906 -5.65625,-5.65625 0,22.62696 22.626954,0 -5.65625,-5.65625 L 120,147.3125 120,240 l -8,0 16,16 16,-16 -8,0 0,-92.6875 65.53906,65.54102 -5.65625,5.65625 22.62696,0 0,-22.62696 -5.65625,5.65625 L 147.3125,136 240,136 l 0,8 16,-16 -16,-16 0,8 -92.6875,0 65.54102,-65.539062 5.65625,5.65625 0,-22.626954 -22.62696,0 5.65625,5.65625 L 136,108.6875 136,16 144,16 128,0 Z"
       id="use4157"
       inkscape:connector-curvature="0" />
  </g>
  <g
     inkscape:groupmode="layer"
     id="layer2"
     inkscape:label="Chaosphere"
     style="display:none"
     sodipodi:insensitive="true">
    <path
       transform="matrix(0.78592291,0,0,0.90054096,-188.15293,-2.8130232)"
       style="fill:none;stroke:#000000;stroke-width:1;stroke-miterlimit:4;stroke-dasharray:none;stroke-opacity:1"
       inkscape:transform-center-x="-0.16615728"
       inkscape:transform-center-y="-10.131597"
       d="m 13.698866,-15.479146 c 14.967127,-30.417506 -10.6920004,-16.474052 22.386613,-35.456552 16.973435,20.271156 -0.139486,8.842965 17.974801,35.120772 10.968727,35.761469 -61.3512929,19.7606434 -40.361414,0.33578 z"
       id="path4153"
       inkscape:connector-curvature="0"
       sodipodi:nodetypes="cccc" />
    <path
       style="fill:none;stroke:#000000;stroke-width:1;stroke-miterlimit:4;stroke-dasharray:none;stroke-opacity:1"
       d="m -177.28177,-48.560993 32,0 0,32 -32,0 z"
       id="rect4155"
       inkscape:connector-curvature="0" />
    <path
       style="fill:url(#radialGradient5724);fill-opacity:1;fill-rule:nonzero;stroke:#000000;stroke-width:1;stroke-miterlimit:4;stroke-dasharray:none;stroke-opacity:1"
       d="M 129.60156,1.3886719 113,31.804688 l 8.59766,0 0.54687,80.000002 -56.251952,-57.025393 7.21875,-7.220703 -33.246094,-9.769532 9.769532,33.248047 6.080078,-6.080078 56.953126,56.181639 -80.097658,-0.54687 0,-10.21094 -30.4179682,16.60156 30.4179682,16.60156 0,-8.59765 79.998048,-0.54688 -57.025391,56.25196 -7.21875,-7.22071 -9.769531,33.24805 33.246093,-9.77148 -6.078125,-6.07813 56.179684,-56.95508 -0.54687,80.09961 -10.21094,0 16.60156,30.41797 16.60157,-30.41797 -8.59766,0 -0.54688,-80 56.25196,57.02539 -7.2207,7.22071 33.24804,9.76953 -9.76953,-33.24805 -6.08008,6.08008 -56.95508,-56.18164 80.09961,0.54687 0,10.21094 30.41797,-16.60156 -30.41797,-16.59961 0,8.5957 -80,0.54883 57.02735,-56.251954 7.21875,7.21875 9.76953,-33.246094 -33.24609,9.769532 6.07812,6.078125 -56.17969,56.955081 0.54688,-80.099612 10.20898,0 -16.59961,-30.4160161 z m 0.64063,122.7226581 2.22656,2.22265 0.002,3.14649 -2.2207,2.22461 -3.14453,0.002 -2.22656,-2.22265 -0.002,-3.14649 2.22266,-2.22461 3.14258,-0.002 z"
       id="use4196"
       inkscape:connector-curvature="0" />
  </g>
  <g
     inkscape:groupmode="layer"
     id="layer3"
     inkscape:label="Text"
     style="display:inline">
    <path
       id="rect4457"
       style="fill:none;fill-opacity:1;fill-rule:nonzero;stroke:#000000;stroke-width:1.07994497;stroke-miterlimit:4;stroke-dasharray:none;stroke-opacity:1"
       d="m 151.53146,68.422486 0,139.004994 c 0,3.53988 -3.97405,6.38967 -8.91042,6.38967 l -5.09922,0 c -4.93637,0 -8.91042,-2.84979 -8.91042,-6.38967 l 0,-158.008489 m -20.57092,-15.32116 c 8.64345,-1.837223 17.13972,3.680322 18.97694,12.323776 1.83722,8.643454 -3.68031,17.139724 -12.32377,18.976948 -0.37476,0.07966 -0.74924,0.145484 -1.12291,0.197838 m 15.06323,-16.203639 c 0.0229,-0.981795 0.13696,-1.975495 0.34859,-2.971149 1.83722,-8.643458 10.3335,-14.160999 18.97696,-12.323776 0.25888,0.05503 0.51496,0.116028 0.76812,0.182828 M 108.69028,33.942685 C 64.925946,42.879823 31.999999,81.59478 32.000001,128 c 2e-6,53.01934 42.980664,96 95.999999,96 53.01934,0 96,-42.98066 96,-96 0,-46.576766 -33.16981,-85.406301 -77.17607,-94.155203 m 4.34503,34.477727 C 175.06287,77.605576 192,100.82485 192,128 c 0,35.34622 -28.65378,64 -64,64 -35.346226,1e-5 -64.000002,-28.65377 -64,-64 2e-6,-31.077459 22.150674,-56.981358 51.52524,-62.784905 M 95.716715,202.92522 c 1.837223,-8.64346 10.333495,-14.161 18.976945,-12.32377 8.64346,1.83722 14.161,10.33349 12.32378,18.97694 -1.83723,8.64346 -10.3335,14.161 -18.97695,12.32377 -8.643455,-1.83722 -14.160997,-10.33349 -12.323775,-18.97694 z m 33.265855,6.65319 c -0.24893,-1.17117 -0.36284,-2.33964 -0.35224,-3.4892 0.0676,-7.33445 5.20373,-13.89947 12.67602,-15.48775 8.64345,-1.83723 17.13972,3.68032 18.97694,12.32377 1.83722,8.64345 -3.68031,17.13973 -12.32377,18.97695 -8.64345,1.83722 -17.13972,-3.68031 -18.97695,-12.32377 z"
       inkscape:connector-curvature="0"
       sodipodi:nodetypes="cssssccssccssccsssccssscsssssssssss" />
  </g>
</svg>
